<?xml version="1.0" encoding="UTF-8"?>
<svg width="112px" height="55px" viewBox="0 0 112 55" version="1.1" xmlns="http://www.w3.org/2000/svg" xmlns:xlink="http://www.w3.org/1999/xlink"><link xmlns="" type="text/css" id="dark-mode" rel="stylesheet" href=""/><style xmlns="" type="text/css" id="dark-mode-custom-style"/>
    <!-- Generator: sketchtool 63.1 (101010) - https://sketch.com -->
    <title>EB5C56EF-EE31-4F1F-8842-815C2490B0F6</title>
    <desc>Created with sketchtool.</desc>
    <g id="Guide-de-style---Base" stroke="none" stroke-width="1" fill="none" fill-rule="evenodd">
        <g id="Base" transform="translate(-788.000000, -4957.000000)">
            <g id="Basic-Icons" transform="translate(150.000000, 4673.000000)">
                <g id="Logo" transform="translate(638.000000, 284.000000)">
                    <path d="M43.9055342,50.1840367 C44.3059726,50.1840367 44.6701005,50.2489865 44.9979178,50.3778632 C45.3257352,50.5072513 45.6008767,50.6969865 45.8243653,50.9470686 L45.2643653,51.4825207 C44.9002374,51.1255527 44.4609315,50.9470686 43.9464475,50.9470686 C43.6094247,50.9470686 43.3102466,51.0161097 43.0484018,51.1547033 C42.7865571,51.293297 42.5819909,51.486612 42.4336804,51.7372056 C42.2858813,51.9867764 42.211726,52.2726577 42.211726,52.5933152 C42.211726,52.9063015 42.2858813,53.1875801 42.4336804,53.4371508 C42.5819909,53.687233 42.7865571,53.8836166 43.0484018,54.0263015 C43.3102466,54.1694979 43.6068676,54.2405846 43.9392877,54.2405846 C44.312621,54.2405846 44.6404384,54.1602924 44.9227397,53.9997079 L44.9227397,52.540128 L45.7629954,52.540128 L45.7629954,54.4078175 C45.5170046,54.5995983 45.2301005,54.746886 44.9022831,54.8496805 C44.5744658,54.952475 44.2374429,55.0036166 43.891726,55.0036166 C43.4048584,55.0036166 42.9655525,54.8997992 42.5738082,54.6921645 C42.1825753,54.4850412 41.8747032,54.1981371 41.6522374,53.8319636 C41.4287489,53.4668129 41.3172603,53.0535892 41.3172603,52.5933152 C41.3172603,52.1340641 41.4287489,51.7208403 41.6522374,51.3556896 C41.8747032,50.9895161 42.1830868,50.702612 42.5773881,50.4949773 C42.9711781,50.287854 43.4135525,50.1840367 43.9055342,50.1840367 Z M17.1186119,50.1840367 C17.5098447,50.1840367 17.8673242,50.2505207 18.1905388,50.3845116 C18.5137534,50.5185024 18.7868493,50.7128403 19.0098265,50.9670138 L18.4365297,51.4958175 C18.0908128,51.129644 17.6648037,50.9470686 17.1595251,50.9470686 C16.8322192,50.9470686 16.5381553,51.0171326 16.2788676,51.1577718 C16.0190685,51.2984111 15.8170594,51.4937718 15.6713059,51.7433426 C15.5255525,51.9939362 15.4524201,52.276749 15.4524201,52.5933152 C15.4524201,52.9109043 15.5255525,53.193717 15.6713059,53.4443107 C15.8170594,53.6938814 16.0190685,53.8892422 16.2788676,54.02937 C16.5381553,54.1700093 16.8322192,54.2405846 17.1595251,54.2405846 C17.6648037,54.2405846 18.0908128,54.0554522 18.4365297,53.6846759 L19.0098265,54.2206394 C18.7868493,54.4748129 18.5127306,54.6691508 18.1874703,54.8031417 C17.8616986,54.9371326 17.5031963,55.0036166 17.1119635,55.0036166 C16.6291872,55.0036166 16.1934612,54.8997992 15.804274,54.6921645 C15.4150868,54.4850412 15.1102831,54.1981371 14.8893516,53.8319636 C14.6684201,53.4668129 14.5579543,53.0535892 14.5579543,52.5933152 C14.5579543,52.1340641 14.6699543,51.7208403 14.8929315,51.3556896 C15.1159087,50.9895161 15.4222466,50.702612 15.8114338,50.4949773 C16.200621,50.287854 16.6358356,50.1840367 17.1186119,50.1840367 Z M22.6766758,50.1840367 C23.1640548,50.1840367 23.6028493,50.287854 23.9945936,50.4949773 C24.3863379,50.702612 24.6931872,50.9895161 24.9166758,51.3556896 C25.1391416,51.7208403 25.2511416,52.1340641 25.2511416,52.5933152 C25.2511416,53.0535892 25.1391416,53.4668129 24.9166758,53.8319636 C24.6931872,54.1981371 24.3863379,54.4850412 23.9945936,54.6921645 C23.6028493,54.8997992 23.1640548,55.0036166 22.6766758,55.0036166 C22.1898082,55.0036166 21.7505023,54.8997992 21.358758,54.6921645 C20.9675251,54.4850412 20.6601644,54.1966029 20.4371872,53.8288951 C20.21421,53.4606759 20.1027215,53.0489865 20.1027215,52.5933152 C20.1027215,52.1386668 20.21421,51.7264659 20.4371872,51.3582467 C20.6601644,50.990539 20.9675251,50.702612 21.358758,50.4949773 C21.7505023,50.287854 22.1898082,50.1840367 22.6766758,50.1840367 Z M51.1021735,50.2505207 L51.1021735,50.9803107 L48.5006027,50.9803107 L48.5006027,52.1985024 L50.808621,52.1985024 L50.808621,52.9149956 L48.5006027,52.9149956 L48.5006027,54.2073426 L51.1978082,54.2073426 L51.1978082,54.9371326 L47.6132968,54.9371326 L47.6132968,50.2505207 L51.1021735,50.2505207 Z M39.9108676,50.2505207 L39.9108676,50.9803107 L37.3092968,50.9803107 L37.3092968,52.1985024 L39.6173151,52.1985024 L39.6173151,52.9149956 L37.3092968,52.9149956 L37.3092968,54.2073426 L40.0065023,54.2073426 L40.0065023,54.9371326 L36.4214795,54.9371326 L36.4214795,50.2505207 L39.9108676,50.2505207 Z M32.5367671,50.2505207 L32.5367671,54.2001828 L35.0355434,54.2001828 L35.0355434,54.9371326 L31.6489498,54.9371326 L31.6489498,50.2505207 L32.5367671,50.2505207 Z M27.763726,50.2505207 L27.763726,54.2001828 L30.2630137,54.2001828 L30.2630137,54.9371326 L26.8759087,54.9371326 L26.8759087,50.2505207 L27.763726,50.2505207 Z M22.6766758,50.9470686 C22.3580639,50.9470686 22.0711598,51.0171326 21.8164749,51.1577718 C21.5612785,51.2984111 21.3613151,51.4947947 21.2155616,51.7469225 C21.0698082,51.9990504 20.9971872,52.2813517 20.9971872,52.5933152 C20.9971872,52.9063015 21.0698082,53.1886029 21.2155616,53.4407307 C21.3613151,53.6928586 21.5612785,53.8892422 21.8164749,54.02937 C22.0711598,54.1700093 22.3580639,54.2405846 22.6766758,54.2405846 C22.9952877,54.2405846 23.2821918,54.1700093 23.5373881,54.02937 C23.7920731,53.8892422 23.9920365,53.6928586 24.1383014,53.4407307 C24.2835434,53.1886029 24.3566758,52.9063015 24.3566758,52.5933152 C24.3566758,52.2813517 24.2835434,51.9990504 24.1383014,51.7469225 C23.9920365,51.4947947 23.7920731,51.2984111 23.5373881,51.1577718 C23.2821918,51.0171326 22.9952877,50.9470686 22.6766758,50.9470686 Z M67.4459909,36.2177901 C66.4395251,37.6819728 64.0706484,37.5628129 64.0706484,37.5628129 C64.9686941,38.1396896 65.5875068,39.0597262 65.5875068,40.1485298 C65.5875068,42.5629225 62.9808219,43.310612 61.0364201,43.4834705 C60.7367306,43.5034157 60.1598539,43.6962193 60.1598539,44.0598358 C60.1598539,44.5293152 61.164274,44.4643654 61.4419726,44.4643654 C65.138484,44.4643654 67.1043653,45.4687855 67.1043653,47.5845116 C67.1043653,49.9983928 64.433242,51.3449499 61.100347,51.3449499 C57.9587215,51.3449499 55.1812237,50.1272696 55.1812237,48.3107216 C55.1812237,47.1145207 56.1431963,46.5806029 57.2325114,46.5806029 C57.6815342,46.5806029 58.0441279,46.6665207 58.4507032,46.8593244 C57.9157626,46.9641645 57.6380639,47.2648769 57.6380639,47.8197627 C57.6380639,49.6143198 59.7752694,49.9360001 61.164274,49.9360001 C62.5737352,49.9360001 64.9456804,49.5289134 64.9456804,47.7348677 C64.9456804,45.8549043 61.8909954,45.747507 60.5863744,45.747507 L60.5863744,45.747507 L59.1119635,45.7909773 C58.1719817,45.8109225 57.5521461,45.0417536 57.5521461,44.2725846 C57.5521461,43.6532604 58.7923288,43.3535709 59.2403288,43.1397992 C57.7014795,42.841644 56.4203836,41.452128 56.4203836,39.8493517 C56.4203836,37.3715435 58.8132968,36.2177901 61.0144292,36.2177901 L61.0144292,36.2177901 Z M20.8867215,36.2177901 C23.7920731,36.2177901 25.7794338,38.3110138 25.6945388,41.0670321 L17.8524932,41.0670321 C17.8949406,43.673717 19.7109772,45.1921097 22.1258813,45.1921097 C23.408,45.1921097 24.6471598,44.8279819 25.629589,44.0598358 L25.6945388,44.0598358 L24.6261918,46.0676531 C23.7071781,46.4517262 22.68179,46.6020823 21.676347,46.6020823 C18.0437626,46.6020823 15.5444749,44.3150321 15.5444749,41.3447307 C15.5444749,38.3749408 17.7031598,36.2177901 20.8867215,36.2177901 Z M49.4973516,36.2177901 C51.804347,36.2177901 53.556968,36.8790504 53.5789589,39.4642559 L53.5789589,42.6703198 C53.5789589,44.3590138 53.6214064,44.9993061 55.3949954,45.1921097 L54.4550137,46.6020823 C53.0440183,46.5156531 51.6340457,46.0886212 51.6340457,44.3804933 L51.6340457,41.0031052 C51.01421,41.3237627 50.288,41.4945755 49.5822466,41.6664111 L49.3126742,41.728451 C48.3648446,41.9504024 47.4025936,42.24878 47.4025936,43.4394887 C47.4025936,44.7640549 48.5998174,45.1921097 49.7320913,45.1921097 C50.2445297,45.1921097 50.7585023,45.0417536 51.2694064,44.8929317 L50.00979,46.4941737 C49.6466849,46.5596349 49.2621005,46.6020823 48.8989954,46.6020823 C46.7408219,46.6020823 45.2444201,45.2360915 45.2444201,43.4609682 C45.2444201,39.4862467 51.6340457,41.3237627 51.6340457,38.9947764 C51.6340457,37.9683654 50.3734064,37.6277627 49.5822466,37.6277627 C48.4924201,37.6277627 47.6383562,38.0333152 46.6763836,38.482338 L48.108347,36.3461554 L49.4973516,36.2177901 Z M73.4505205,36.2177901 C76.3563836,36.2177901 78.3432329,38.3110138 78.2578265,41.0670321 L70.4157808,41.0670321 C70.4577169,43.673717 72.2742648,45.1921097 74.6896804,45.1921097 C75.9707763,45.1921097 77.2099361,44.8279819 78.1938995,44.0598358 L78.2578265,44.0598358 L77.1894795,46.0676531 C76.2709772,46.4517262 75.2450776,46.6020823 74.2401461,46.6020823 C70.6085845,46.6020823 68.108274,44.3150321 68.108274,41.3447307 C68.108274,38.3749408 70.2669589,36.2177901 73.4505205,36.2177901 Z M41.8470868,33.3098814 L41.8470868,36.4954887 L43.8559269,36.4954887 C44.134137,36.4954887 44.4547945,36.4954887 44.6680548,36.366612 L44.7319817,36.366612 L44.7319817,38.3110138 L44.6680548,38.3110138 C44.3553668,37.9003472 43.7904267,37.9017926 43.2702502,37.9048854 L41.8470868,37.9054613 L41.8470868,42.1788495 C41.8470868,42.9909773 41.591379,45.1921097 43.8784292,45.1921097 C44.1765845,45.1921097 44.4547945,45.0847125 44.7319817,44.978338 L43.6002192,46.4941737 C43.3864475,46.5596349 43.1506849,46.6020823 42.9159452,46.6020823 C39.6040183,46.6020823 39.9031963,43.1822467 39.9031963,42.3491508 L39.9031963,37.9054613 L38.4502648,37.9054613 L38.4502648,37.1362924 C40.459105,36.7941554 40.9925114,35.298265 40.9925114,33.3098814 L41.8470868,33.3098814 Z M36.4199452,36.1533517 L36.4199452,43.9524385 C36.4199452,44.9353791 36.2931142,45.7260275 37.2320731,46.2604568 L37.2320731,46.3243837 L33.6639269,46.3243837 L33.6639269,46.2604568 C34.6044201,45.7260275 34.4755434,44.9353791 34.4755434,43.9524385 L34.4755434,38.8459545 C34.4755434,37.8630138 34.6044201,37.0933335 33.6639269,36.5599271 L33.6639269,36.4954887 L34.9675251,36.4954887 C35.4589954,36.4954887 35.9929132,36.4734979 36.3560183,36.1533517 L36.4199452,36.1533517 Z M4.39152511,32.2645481 L4.39152511,32.328475 C3.32215525,32.7335161 3.45052055,34.2938449 3.45052055,35.2757627 L3.45052055,37.9269408 L11.1642009,37.9269408 L11.1642009,35.2757627 C11.1642009,34.2938449 11.3140457,32.7335161 10.2242192,32.328475 L10.2242192,32.2645481 L14.3058265,32.2645481 L14.3058265,32.328475 C13.2645612,32.7151052 13.3346579,34.1543838 13.3431817,35.1210953 L13.3438539,43.3336257 C13.3438539,44.2950869 13.2149772,45.8549043 14.3058265,46.2604568 L14.3058265,46.3243837 L10.2242192,46.3243837 L10.2242192,46.2604568 C11.2645081,45.8733385 11.1752619,44.4345036 11.1649992,43.4682783 L11.1642009,39.4642559 L3.45052055,39.4642559 L3.45052055,43.3336257 C3.45052055,44.2950869 3.32215525,45.8549043 4.39152511,46.2604568 L4.39152511,46.3243837 L0.330885845,46.3243837 L0.330885845,46.2604568 C1.39923288,45.8549043 1.27086758,44.2950869 1.27086758,43.3336257 L1.27086758,35.2558175 C1.27086758,34.2938449 1.42122374,32.7335161 0.330885845,32.328475 L0.330885845,32.2645481 L4.39152511,32.2645481 Z M29.6682374,36.2177901 L29.6682374,37.8405116 C30.1387397,36.8790504 31.1221918,36.2177901 32.189516,36.2177901 L32.9586849,36.2806942 L32.9586849,38.2481097 C32.7234338,37.9903563 32.3393607,37.9054613 31.9767671,37.9054613 C30.352,37.9054613 29.6682374,38.7595253 29.6682374,40.9611691 L29.6682374,43.9524385 C29.6682374,44.9353791 29.5398721,45.7260275 30.4808767,46.2604568 L30.4808767,46.3243837 L26.9122192,46.3243837 L26.9122192,46.2604568 C27.8522009,45.7260275 27.7233242,44.9353791 27.7233242,43.9524385 L27.7233242,38.8459545 C27.7233242,37.8630138 27.8522009,37.0933335 26.9336986,36.5599271 L26.9336986,36.4954887 L28.3002009,36.4954887 C28.7921826,36.4954887 29.3051324,36.4734979 29.6043105,36.2177901 L29.6682374,36.2177901 Z M60.7576986,37.6277627 C59.5824658,37.6277627 58.5785571,38.2685664 58.5785571,39.5082376 C58.5785571,40.8957079 59.8177169,42.0714522 61.2067215,42.0714522 C62.4893516,42.0714522 63.4288219,41.2388677 63.4288219,39.9997079 C63.4288219,38.6321828 62.2750685,37.6277627 60.7576986,37.6277627 Z M20.6939178,37.6277627 C19.2619543,37.6277627 18.1946301,38.482338 17.938411,39.8278723 L23.4499361,39.8278723 C23.2151963,38.3330047 22.2332785,37.6277627 20.6939178,37.6277627 Z M73.2577169,37.6277627 C71.825242,37.6277627 70.7584292,38.482338 70.5006758,39.8278723 L76.014758,39.8278723 C75.7789954,38.3330047 74.7960548,37.6277627 73.2577169,37.6277627 Z M83.4169863,20.9776075 C88.643653,29.9360732 97.8061735,38.0813883 111.493187,24.7830504 C111.493187,24.7830504 95.1355616,54.4277627 76.0786849,24.6352513 C78.939032,23.756128 81.3667215,22.4648038 83.4169863,20.9776075 Z M35.373589,32.5412239 C36.0997991,32.5412239 36.6557078,33.1610595 36.6557078,33.8663015 C36.6557078,34.5715435 36.0997991,35.21337 35.373589,35.21337 C34.5824292,35.21337 33.9840731,34.5935344 33.9840731,33.8023746 C33.9840731,33.0541737 34.6688584,32.5412239 35.373589,32.5412239 Z M2.56014612,24.0757627 C2.95189041,24.0757627 3.30885845,24.1427581 3.63258447,24.2762376 C3.95528767,24.4102285 4.22838356,24.6045664 4.45187215,24.8587399 L3.87806393,25.3875435 C3.53234703,25.0218814 3.1063379,24.8387947 2.60157078,24.8387947 C2.27375342,24.8387947 1.98020091,24.9088586 1.72040183,25.0494979 C1.46111416,25.1901371 1.25859361,25.3854979 1.11284018,25.6355801 C0.967086758,25.8851508 0.894465753,26.1689865 0.894465753,26.4855527 C0.894465753,26.8026303 0.967086758,27.0859545 1.11284018,27.3355253 C1.25859361,27.5856075 1.46111416,27.7809682 1.72040183,27.9216075 C1.98020091,28.0622467 2.27375342,28.1317992 2.60157078,28.1317992 C3.1063379,28.1317992 3.53234703,27.9471782 3.87806393,27.576402 L4.45187215,28.111854 C4.22838356,28.366539 3.95477626,28.5608769 3.62900457,28.6943563 C3.30323288,28.8288586 2.94473059,28.895854 2.55349772,28.895854 C2.07072146,28.895854 1.63499543,28.7915253 1.24580822,28.5838906 C0.856621005,28.3767673 0.551817352,28.0898632 0.330885845,27.7242011 C0.109954338,27.3580275 -9.85227121e-13,26.9453152 -9.85227121e-13,26.4855527 C-9.85227121e-13,26.0257901 0.111488584,25.6130778 0.334465753,25.2469043 C0.557442922,24.8812422 0.863780822,24.594338 1.25296804,24.3867033 C1.64215525,24.1790686 2.07788128,24.0757627 2.56014612,24.0757627 Z M13.4717078,24.0757627 C13.8721461,24.0757627 14.236274,24.1402011 14.5640913,24.2695892 C14.8919087,24.3994887 15.1675616,24.5887125 15.3905388,24.8387947 L14.8305388,25.3742467 C14.466411,25.0172787 14.027105,24.8387947 13.512621,24.8387947 C13.1755982,24.8387947 12.8764201,24.9078358 12.6145753,25.0464294 C12.3527306,25.1845116 12.1481644,25.3788495 11.9998539,25.6284202 C11.8520548,25.8785024 11.7778995,26.1643837 11.7778995,26.4855527 C11.7778995,26.7980275 11.8520548,27.0793061 11.9998539,27.3288769 C12.1481644,27.5789591 12.3527306,27.7753426 12.6145753,27.9180275 C12.8764201,28.0612239 13.1735525,28.1317992 13.5059726,28.1317992 C13.8787945,28.1317992 14.2066119,28.0520184 14.4889132,27.8914339 L14.4889132,26.431854 L15.3291689,26.431854 L15.3291689,28.3000549 C15.0831781,28.4918358 14.796274,28.6391234 14.4684566,28.7414065 C14.1406393,28.8442011 13.8036164,28.895854 13.458411,28.895854 C12.971032,28.895854 12.531726,28.7915253 12.1399817,28.5838906 C11.7487489,28.3767673 11.4413881,28.0898632 11.218411,27.7242011 C10.9954338,27.3580275 10.8839452,26.9453152 10.8839452,26.4855527 C10.8839452,26.0257901 10.9954338,25.6130778 11.218411,25.2469043 C11.4413881,24.8812422 11.7497717,24.594338 12.1435616,24.3867033 C12.5373516,24.1790686 12.9802374,24.0757627 13.4717078,24.0757627 Z M9.4770411,24.1427581 L9.4770411,24.8720367 L6.87547032,24.8720367 L6.87547032,26.0907399 L9.184,26.0907399 L9.184,26.8067216 L6.87547032,26.8067216 L6.87547032,28.0990686 L9.5726758,28.0990686 L9.5726758,28.8288586 L5.98816438,28.8288586 L5.98816438,24.1427581 L9.4770411,24.1427581 Z M20.6688584,24.1427581 L20.6688584,24.8720367 L18.0667763,24.8720367 L18.0667763,26.0907399 L20.3747945,26.0907399 L20.3747945,26.8067216 L18.0667763,26.8067216 L18.0667763,28.0990686 L20.7639817,28.0990686 L20.7639817,28.8288586 L17.1794703,28.8288586 L17.1794703,24.1427581 L20.6688584,24.1427581 Z M24.4032146,24.1427581 C24.8174612,24.1427581 25.1785205,24.2097536 25.4858813,24.343233 C25.793242,24.4772239 26.0284932,24.6690047 26.1921461,24.9190869 C26.3563105,25.1686577 26.438137,25.4657901 26.438137,25.8094613 C26.438137,26.1485298 26.3563105,26.4446394 26.1921461,26.6962559 C26.0284932,26.9483837 25.793242,27.1411874 25.4858813,27.2756896 C25.1785205,27.4091691 24.8174612,27.4761645 24.4032146,27.4761645 L23.3246393,27.4761645 L23.3246393,28.8288586 L22.4368219,28.8288586 L22.4368219,24.1427581 L24.4032146,24.1427581 Z M24.3623014,24.8791965 L23.3246393,24.8791965 L23.3246393,26.7397262 L24.3623014,26.7397262 C24.7494429,26.7397262 25.0429954,26.6594339 25.2434703,26.4988495 C25.4434338,26.338265 25.5436712,26.108128 25.5436712,25.8094613 C25.5436712,25.5102833 25.4434338,25.2806577 25.2434703,25.1200732 C25.0429954,24.9589773 24.7494429,24.8791965 24.3623014,24.8791965 Z M9.0950137,22.8437627 L7.90648402,23.7612422 L7.16953425,23.7612422 L8.09110502,22.8437627 L9.0950137,22.8437627 Z M77.6707215,7.69358919 C77.6707215,7.69358919 78.8536256,12.2482559 81.3278539,17.3665024 C78.2542466,19.0030321 75.4701005,19.6617353 73.0679817,19.7737353 C71.2125662,16.3615709 69.3382283,12.3623015 67.4567306,7.69358919 L67.4567306,7.69358919 Z" id="Combined-Shape" fill="#FFFFFF"/>
                    <path d="M90.9015525,9.73362572 C79.9843653,25.2172422 66.8747397,20.0555253 64.7549224,19.0812787 C44.3105753,-20.0501916 25.9993425,13.1294248 25.9993425,13.1294248 C49.2585205,-9.47360716 59.4607489,29.8624294 59.4607489,29.8624294 L69.6732055,29.8624294 C68.9694977,28.1159454 68.2673242,26.4640732 67.5656621,24.9011874 C85.389516,25.0694431 90.9015525,9.73362572 90.9015525,9.73362572" id="Fill-12" fill="#FAB900"/>
                </g>
            </g>
        </g>
    </g>
</svg>